<?xml version="1.0" encoding="utf-8"?>
<!-- Generator: Adobe Illustrator 24.3.0, SVG Export Plug-In . SVG Version: 6.00 Build 0)  -->
<svg version="1.1" id="Calque_1" xmlns="http://www.w3.org/2000/svg" xmlns:xlink="http://www.w3.org/1999/xlink" x="0px" y="0px"
	 viewBox="0 0 13 13" style="enable-background:new 0 0 13 13;" xml:space="preserve">
<style type="text/css">
	.st0{fill:#41339F;}
	.st1{fill:#41339F;stroke:#FFFFFF;stroke-width:2;stroke-miterlimit:10;}
	.st2{fill-rule:evenodd;clip-rule:evenodd;fill:#FFFFFF;}
</style>
<path class="st2" d="M0,8.5C0,9.3,0.7,10,1.5,10H3V9H1.5C1.2,9,1,8.8,1,8.5v-7C1,1.2,1.2,1,1.5,1h7C8.8,1,9,1.2,9,1.5V3H4.5
	C3.7,3,3,3.7,3,4.5v7C3,12.3,3.7,13,4.5,13h7c0.8,0,1.5-0.7,1.5-1.5v-7C13,3.7,12.3,3,11.5,3H10V1.5C10,0.7,9.3,0,8.5,0h-7
	C0.7,0,0,0.7,0,1.5V8.5z M4,4.5C4,4.2,4.2,4,4.5,4h7C11.8,4,12,4.2,12,4.5v7c0,0.3-0.2,0.5-0.5,0.5h-7C4.2,12,4,11.8,4,11.5V4.5z"/>
</svg>
