<?xml version="1.0" encoding="utf-8"?>
<!-- Generator: Adobe Illustrator 24.3.0, SVG Export Plug-In . SVG Version: 6.00 Build 0)  -->
<svg version="1.1" id="Calque_1" xmlns="http://www.w3.org/2000/svg" xmlns:xlink="http://www.w3.org/1999/xlink" x="0px" y="0px"
	 viewBox="0 0 176.6 176.6" style="enable-background:new 0 0 176.6 176.6;" xml:space="preserve">
<style type="text/css">
	.st0{fill:none;stroke:#FFFFFF;stroke-width:2;stroke-miterlimit:10;}
	.st1{fill:#FFFFFF;}
	.st2{fill:none;}
</style>
<g>
	<path class="st1" d="M54.7,11.9l1.4-0.5l7.6,8.6l0.2-11.5l1.4-0.5l-0.3,13.5l-1.2,0.4L54.7,11.9z"/>
	<path class="st1" d="M82.6,16c-1.1,1.4-2.5,2.3-4.3,2.5c-1.8,0.3-3.4-0.1-4.8-1.2c-1.4-1.1-2.3-2.5-2.5-4.3
		c-0.3-1.8,0.1-3.4,1.2-4.8c1.1-1.4,2.5-2.3,4.3-2.5c1.8-0.3,3.4,0.1,4.8,1.2s2.3,2.5,2.5,4.3C84.1,13,83.7,14.6,82.6,16z
		 M74.3,16.3c1.1,0.9,2.4,1.2,3.8,1c1.4-0.2,2.6-0.9,3.4-2c0.8-1.1,1.2-2.4,0.9-3.9c-0.2-1.5-0.9-2.6-2-3.5c-1.1-0.9-2.4-1.2-3.8-1
		c-1.4,0.2-2.6,0.9-3.4,2c-0.8,1.1-1.2,2.4-0.9,3.9C72.5,14.3,73.2,15.5,74.3,16.3z"/>
	<path class="st1" d="M96.9,5.3l-0.1,1.3l-4-0.2l-0.5,11.3L91,17.7l0.5-11.3l-4-0.2l0.1-1.3L96.9,5.3z"/>
	<path class="st1" d="M109.1,19.2l-0.3,1.2l-8.6-1.9l2.8-12.3l8.4,1.9l-0.3,1.2L104,7.7l-0.9,4l5.7,1.3l-0.3,1.2l-5.7-1.3l-1,4.6
		L109.1,19.2z"/>
	<path class="st1" d="M120.7,19.3c0.5-0.2,0.9-0.1,1.3,0.1c0.4,0.2,0.7,0.5,0.8,1c0.2,0.5,0.1,0.9-0.1,1.3c-0.2,0.4-0.5,0.7-1,0.8
		s-0.9,0.1-1.3-0.1c-0.4-0.2-0.7-0.5-0.8-1c-0.2-0.5-0.1-0.9,0.1-1.3C119.9,19.7,120.3,19.4,120.7,19.3z"/>
	<path class="st1" d="M137.1,20.5l1.1,0.9l-3.6,10.9l10-5.6l1.1,0.9l-11.8,6.6l-1-0.8L137.1,20.5z"/>
	<path class="st1" d="M147.8,46.6c-1.8-0.2-3.2-1-4.3-2.4c-1.1-1.4-1.6-3-1.4-4.8c0.2-1.8,1-3.2,2.4-4.3c1.4-1.1,3-1.6,4.8-1.4
		c1.8,0.2,3.2,1,4.3,2.4c1.1,1.4,1.6,3,1.4,4.8c-0.2,1.8-1,3.2-2.4,4.3C151.1,46.4,149.5,46.8,147.8,46.6z M143.3,39.7
		c-0.2,1.4,0.2,2.7,1.1,3.8s2.1,1.8,3.5,1.9c1.4,0.1,2.7-0.2,3.8-1.2c1.2-0.9,1.8-2.1,2-3.5s-0.2-2.7-1.1-3.8s-2.1-1.8-3.5-1.9
		s-2.7,0.2-3.8,1.2C144.1,37.1,143.5,38.3,143.3,39.7z"/>
	<path class="st1" d="M164.2,53.5l-1.1,0.6l-1.9-3.5l-10,5.3l-0.6-1.2l10-5.3l-1.9-3.5l1.1-0.6L164.2,53.5z"/>
	<path class="st1" d="M158.4,71l-1.2,0.4l-2.7-8.4l12-3.9l2.6,8.2l-1.2,0.4l-2.2-6.9l-3.9,1.3l1.8,5.6l-1.2,0.4l-1.8-5.6l-4.5,1.4
		L158.4,71z"/>
	<path class="st1" d="M164.3,81.2c0.4,0.3,0.6,0.7,0.6,1.2s-0.1,0.9-0.4,1.2c-0.3,0.4-0.7,0.6-1.2,0.6c-0.5,0-0.9-0.1-1.2-0.4
		s-0.6-0.7-0.6-1.2c0-0.5,0.1-0.9,0.4-1.2c0.3-0.4,0.7-0.6,1.2-0.6C163.5,80.7,163.9,80.8,164.3,81.2z"/>
	<path class="st1" d="M171.6,95.9l-0.2,1.4l-11.2,2.4l9.9,5.8l-0.2,1.4l-11.7-6.9l0.2-1.2L171.6,95.9z"/>
	<path class="st1" d="M154.5,118.3c-0.7-1.6-0.8-3.3-0.1-5c0.6-1.7,1.8-2.9,3.4-3.6c1.6-0.7,3.3-0.8,5-0.1s2.9,1.8,3.6,3.4
		c0.7,1.6,0.8,3.3,0.1,5s-1.8,2.9-3.4,3.6c-1.6,0.7-3.3,0.8-5,0.1S155.2,120,154.5,118.3z M158.2,111c-1.3,0.6-2.2,1.5-2.7,2.9
		c-0.5,1.3-0.5,2.7,0.1,3.9c0.6,1.3,1.6,2.2,2.9,2.7c1.4,0.5,2.7,0.5,4-0.1c1.3-0.6,2.2-1.5,2.7-2.9c0.5-1.3,0.5-2.7-0.1-3.9
		c-0.6-1.3-1.6-2.2-2.9-2.7C160.8,110.4,159.5,110.4,158.2,111z"/>
	<path class="st1" d="M156.9,136.1l-1.1-0.7l2.1-3.4l-9.6-6l0.7-1.1l9.6,6l2.1-3.4l1.1,0.7L156.9,136.1z"/>
	<path class="st1" d="M138.8,139.9l-0.9-0.8l5.9-6.6l9.4,8.4l-5.7,6.4l-0.9-0.8l4.8-5.4l-3.1-2.8l-3.9,4.4l-0.9-0.8l3.9-4.4
		l-3.5-3.1L138.8,139.9z"/>
	<path class="st1" d="M133.1,150.1c-0.1,0.5-0.3,0.8-0.7,1.1c-0.4,0.3-0.8,0.3-1.3,0.3c-0.5-0.1-0.8-0.3-1.1-0.7s-0.3-0.8-0.3-1.3
		c0.1-0.5,0.3-0.8,0.7-1.1c0.4-0.3,0.8-0.3,1.3-0.3c0.5,0.1,0.8,0.3,1.1,0.7C133.1,149.2,133.2,149.6,133.1,150.1z"/>
	<path class="st1" d="M124,163.9l-1.3,0.5l-7.8-8.5l0.1,11.5l-1.3,0.5l0-13.5l1.2-0.5L124,163.9z"/>
	<path class="st1" d="M96.1,160.5c1-1.5,2.4-2.3,4.2-2.6s3.4,0.1,4.8,1.1c1.5,1,2.3,2.4,2.6,4.2s-0.1,3.4-1.1,4.8
		c-1,1.5-2.4,2.3-4.2,2.6s-3.4-0.1-4.8-1.1c-1.5-1-2.3-2.4-2.6-4.2S95,161.9,96.1,160.5z M104.3,160c-1.1-0.8-2.4-1.1-3.8-0.9
		s-2.5,0.9-3.3,2.1c-0.8,1.2-1.1,2.5-0.8,3.9s0.9,2.6,2.1,3.4s2.4,1.1,3.8,0.9s2.5-0.9,3.3-2.1s1.1-2.5,0.8-3.9
		S105.5,160.8,104.3,160z"/>
	<path class="st1" d="M82,171.5l0-1.3l4,0.1l0.2-11.3l1.3,0l-0.2,11.3l4,0.1l0,1.3L82,171.5z"/>
	<path class="st1" d="M69.5,158l0.2-1.2l8.7,1.7L76,170.8l-8.5-1.7l0.2-1.2l7.1,1.4l0.8-4.1l-5.7-1.1l0.2-1.2L76,164l0.9-4.6
		L69.5,158z"/>
	<path class="st1" d="M57.9,158.2c-0.5,0.2-0.9,0.2-1.3,0s-0.7-0.5-0.9-1c-0.2-0.5-0.2-0.9,0-1.3c0.2-0.4,0.5-0.7,1-0.9
		s0.9-0.2,1.3,0s0.7,0.5,0.9,1c0.2,0.5,0.2,0.9,0,1.3C58.6,157.7,58.3,158,57.9,158.2z"/>
	<path class="st1" d="M41.4,157.3l-1.1-0.9l3.4-11l-9.9,5.9l-1.1-0.9l11.7-6.9l1,0.8L41.4,157.3z"/>
	<path class="st1" d="M30.1,131.5c1.8,0.1,3.2,0.9,4.4,2.3c1.2,1.4,1.7,2.9,1.5,4.7c-0.1,1.8-0.9,3.2-2.3,4.4
		c-1.4,1.2-2.9,1.7-4.7,1.5c-1.8-0.1-3.2-0.9-4.4-2.3s-1.7-2.9-1.5-4.7s0.9-3.2,2.3-4.4C26.7,131.9,28.3,131.4,30.1,131.5z
		 M34.8,138.4c0.1-1.4-0.3-2.7-1.2-3.8c-0.9-1.1-2.1-1.7-3.5-1.8c-1.4-0.1-2.7,0.3-3.8,1.3s-1.8,2.1-1.9,3.5
		c-0.1,1.4,0.3,2.7,1.2,3.8c0.9,1.1,2.1,1.7,3.5,1.8s2.7-0.3,3.8-1.3C34,141,34.6,139.8,34.8,138.4z"/>
	<path class="st1" d="M13.5,125.1l1.1-0.6l1.9,3.5l9.9-5.6l0.7,1.2l-9.9,5.6l1.9,3.5l-1.1,0.6L13.5,125.1z"/>
	<path class="st1" d="M18.8,107.4L20,107l2.9,8.3L11,119.5l-2.8-8.2l1.2-0.4l2.4,6.9l3.9-1.4l-1.9-5.5l1.2-0.4l1.9,5.5l4.4-1.5
		L18.8,107.4z"/>
	<path class="st1" d="M12.7,97.4c-0.4-0.3-0.6-0.7-0.6-1.1c0-0.5,0.1-0.9,0.4-1.2s0.7-0.6,1.1-0.6c0.5,0,0.9,0.1,1.2,0.4
		c0.4,0.3,0.6,0.7,0.6,1.1s-0.1,0.9-0.4,1.2s-0.7,0.6-1.1,0.6C13.5,97.9,13.1,97.7,12.7,97.4z"/>
	<path class="st1" d="M5.1,82.8l0.2-1.4l11.2-2.7L6.4,73.2l0.2-1.4l11.8,6.6l-0.2,1.2L5.1,82.8z"/>
	<path class="st1" d="M21.6,60c0.8,1.6,0.9,3.3,0.3,5c-0.6,1.7-1.7,2.9-3.3,3.7c-1.6,0.8-3.3,0.9-5,0.3c-1.7-0.6-2.9-1.7-3.7-3.3
		c-0.8-1.6-0.9-3.3-0.3-5c0.6-1.7,1.7-2.9,3.3-3.7c1.6-0.8,3.3-0.9,5-0.3C19.6,57.3,20.8,58.4,21.6,60z M18,67.5
		c1.3-0.6,2.1-1.6,2.6-2.9s0.4-2.7-0.2-3.9s-1.6-2.1-3-2.6c-1.4-0.5-2.7-0.4-4,0.2c-1.3,0.6-2.1,1.6-2.6,2.9S10.4,63.8,11,65
		c0.6,1.3,1.6,2.1,3,2.6S16.8,68.1,18,67.5z"/>
	<path class="st1" d="M18.8,42.4l1.1,0.6l-2,3.4l9.8,5.7L27,53.3l-9.8-5.7l-2,3.4l-1.1-0.6L18.8,42.4z"/>
	<path class="st1" d="M36.7,38l1,0.8L32,45.6l-9.6-8.2l5.6-6.6l1,0.8l-4.7,5.6l3.2,2.7l3.8-4.5l1,0.8l-3.8,4.5l3.6,3L36.7,38z"/>
	<path class="st1" d="M42.2,27.7c0.1-0.5,0.3-0.9,0.7-1.1c0.4-0.3,0.8-0.4,1.3-0.3c0.5,0.1,0.9,0.3,1.1,0.7c0.3,0.4,0.4,0.8,0.3,1.3
		c-0.1,0.5-0.3,0.9-0.7,1.1c-0.4,0.3-0.8,0.4-1.3,0.3c-0.5-0.1-0.9-0.3-1.1-0.7C42.2,28.6,42.1,28.2,42.2,27.7z"/>
</g>
<rect class="st2" width="176.6" height="176.6"/>
</svg>
